<svg class="brxe-svg footer-logo" id="brxe-hmkoix" xmlns="http://www.w3.org/2000/svg"
    width="1298.9181" height="197.4064" viewBox="0 0 1298.9181 197.4064">
    <g  fill="white" stroke="red">
    <defs>
        <style>.uuid-5a2aa463-0cbb-43c0-92c2-cc9599de6419{stroke-width:0px;}</style>
    </defs>
    <path class="uuid-5a2aa463-0cbb-43c0-92c2-cc9599de6419"
        d="m147.5693,32.5384V12.9294C133.1612,4.7033,116.482,0,98.7032,0c-18.1775,0-35.2039,4.9192-49.8303,13.4909v19.7739c13.8284-10.5473,31.0961-16.8154,49.8303-16.8154,18.3008,0,35.2031,5.9803,48.8661,16.089Z"></path>
    <path class="uuid-5a2aa463-0cbb-43c0-92c2-cc9599de6419"
        d="m155.794,18.1775v21.32c15.5075,14.9587,25.1562,35.9508,25.1562,59.1989,0,45.4238-36.8232,82.247-82.247,82.247S16.4562,144.1201,16.4562,98.6964c0-22.7634,9.2487-43.3657,24.192-58.2574v-21.56C16.0142,36.8258,0,65.8921,0,98.7032c0,54.5123,44.1909,98.7032,98.7032,98.7032s98.7032-44.191,98.7032-98.7032c0-33.239-16.4305-62.6401-41.6124-80.5257Z"></path>
    <path class="uuid-5a2aa463-0cbb-43c0-92c2-cc9599de6419"
        d="m147.5646,44.3119c-.0004-.7788-.3509-1.5127-.9554-2.0037-1.402-1.1387-3.7997-3.0531-4.0982-3.2727-.18-.1324-.3594-.2654-.5406-.3962-.4754-.3432-.9556-.6801-1.4394-1.0122-.102-.07-.2024-.1421-.3048-.2116-.6115-.4153-1.2293-.8219-1.8536-1.2192-.0352-.0224-.0711-.0436-.1063-.066-.5731-.3632-1.1521-.7177-1.7357-1.0655-.1454-.0866-.292-.1709-.438-.2565-.2866-.1681-.5712-.3395-.8603-.5039v.0122c-2.6444-1.5034-5.3899-2.8479-8.2247-4.0222v-.0111c-.28-.116-.5629-.2265-.8446-.3391-.1111-.0444-.2215-.0897-.3327-.1336-.6658-.2623-1.3357-.5161-2.0107-.7595-.1096-.0396-.2207-.0759-.3294-.1172-.4287-.1627-.8606-.315-1.2987-.4502-.2818-.0869-.5597-.1819-.8399-.2718-.6757-.2169-1.3547-.4265-2.0387-.6243-.0633-.0183-.1271-.0349-.1903-.053-.6149-.1761-1.2337-.3429-1.855-.5034-.179-.0462-.358-.0921-.5375-.137-.6664-.1667-1.3351-.3274-2.0085-.476-.0171-.0038-.0339-.0083-.051-.0121v59.9532l28.7368,21.5526c1.7148,1.2861,4.162.0625,4.162-2.081v-44.778s-.0027-12.7039-.0047-16.741h0Zm-20.557,35.0847v-35.5086c2.684,1.389,5.255,2.9653,7.6912,4.7183.3363.242.5335.6339.5335,1.0482v33.2783c0,1.0845-1.2382,1.7036-2.1058,1.0529l-6.1189-4.5892h0Z"></path>
    <path class="uuid-5a2aa463-0cbb-43c0-92c2-cc9599de6419"
        d="m77.1532,27.8644c-.0006.0002-.0012.0004-.0018.0006-.6981.2123-1.3907.4367-2.0798.6688-.1479.0498-.295.1009-.4426.1516-.5626.1933-1.1236.3914-1.6806.6005-.1291.0485-.2594.0943-.3884.1429-.6369.2407-1.269.4908-1.8974.7483-.1862.0762-.371.1549-.5564.2326-.2238.0938-.449.1848-.6716.2808v.0093c-2.8379,1.2228-5.5835,2.617-8.2247,4.1714v-.0068c-.1682.099-.3331.2031-.5004.3033-.3376.2023-.6753.4044-1.0094.6118-.2631.1634-.5227.3316-.7835.4982-.5318.3398-1.0596.6859-1.5828,1.0389-.3439.2321-.6888.4629-1.0286.7005-.2748.1923-.5451.3905-.8172.5864-.3137.2258-.6272.4517-.9372.6823-.2589.1927-.5153.3884-.7716.5844-.3264.2495-.6508.5013-.973.7561-.2331.1845-.4659.3694-.6968.5567-.3613.2929-.7185.5905-1.0742.89-.1874.1579-.3765.3138-.5623.4735-.5396.4638-1.0742.9333-1.6001,1.4124v61.9058c0,2.1327,2.4326,3.3522,4.1414,2.0762l8.1956-6.1196v-8.575l19.5259-14.6444c.6521-.4891,1.0358-1.2566,1.0358-2.0717V30.0064c0-1.7131-1.6279-2.9574-3.2821-2.5119-.6097.1642-1.1226.3049-1.3364.3699h.0002Zm-8.2324,43.3833l-7.7109,5.7832v-27.3138c1.9975-1.5312,4.0933-2.9397,6.2738-4.22.8625-.5064,1.9509.1214,1.9509,1.1216v23.6014c0,.4043-.1904.785-.5138,1.0276Z"></path>
    <path class="uuid-5a2aa463-0cbb-43c0-92c2-cc9599de6419"
        d="m69.5149,137.7637h12.3894c1.0125-8.1136,7.929-14.3932,16.3169-14.3932s15.3043,6.2797,16.3169,14.3932h12.3943c-.6171-8.7322-5.1297-16.3857-11.8099-21.2405-.0122-.0094-.0202-.0229-.0329-.0319-5.2334-3.7475-8.6437-9.8788-8.6437-16.8065V25.0762c-2.545-.2646-5.1277-.4021-7.7426-.4021-2.9462,0-5.8505.1776-8.7068.5123v74.4983c0,6.6428-3.1205,12.5673-7.9889,16.3495-.4143.2829-.8194.5779-1.2178.8815-.0445.0296-.0866.0625-.1313.0918.002.0021.0039.0047.0059.0067-6.3183,4.8714-10.5523,12.3068-11.1494,20.7494h-.0001Z"></path>
    <path class="uuid-5a2aa463-0cbb-43c0-92c2-cc9599de6419"
        d="m114.538,141.876c-1.0125,8.1136-7.929,14.3932-16.3169,14.3932s-15.3043-6.2797-16.3169-14.3932h-12.3884c1.0555,14.9375,13.4992,26.7303,28.7053,26.7303s27.6498-11.7927,28.7053-26.7303h-12.3884Z"></path>
    <path class="uuid-5a2aa463-0cbb-43c0-92c2-cc9599de6419"
        d="m1291.6284,40.0151h-92.9563c-4.7781,0-9.3769,3.9093-10.2194,8.6874l-16.3907,92.9564c-.8425,4.7781,2.3776,8.6875,7.1557,8.6875h92.9563c4.7781,0,9.3769-3.9094,10.2194-8.6875l16.3907-92.9564c.8425-4.7781-2.3776-8.6874-7.1557-8.6874Zm-32.7202,78.4047c-.4212,2.389-2.7206,4.3438-5.1097,4.3438h-46.4781c-2.3891,0-3.9991-1.9548-3.5778-4.3438l8.1953-46.4781c.4213-2.3891,2.7206-4.3438,5.1097-4.3438h46.4781c2.3891,0,3.9991,1.9547,3.5778,4.3438l-8.1953,46.4781Z"></path>
    <path class="uuid-5a2aa463-0cbb-43c0-92c2-cc9599de6419"
        d="m381.3948,40.0151h-92.9563c-4.7781,0-9.3769,3.9093-10.2194,8.6874l-14.5908,82.7485-1.7999,10.2079-6.3954,36.2704h18.8953c4.7781,0,9.3769-3.9094,10.2194-8.6875l3.3318-18.8953h74.061c4.7781,0,9.3769-3.9094,10.2194-8.6875l16.3907-92.9564c.8425-4.7781-2.3776-8.6874-7.1557-8.6874Zm-32.7202,78.4047c-.4212,2.389-2.7206,4.3438-5.1097,4.3438h-46.4781c-2.3891,0-3.9991-1.9548-3.5778-4.3438l8.1953-46.4781c.4213-2.3891,2.7206-4.3438,5.1097-4.3438h46.4781c2.3891,0,3.9991,1.9547,3.5778,4.3438l-8.1953,46.4781Z"></path>
    <path class="uuid-5a2aa463-0cbb-43c0-92c2-cc9599de6419"
        d="m930.9722,150.3465h92.9563c4.7781,0,9.3769-3.9093,10.2194-8.6874l14.5908-82.7485,1.7999-10.2079,6.3954-36.2704h-18.8953c-4.7781,0-9.3769,3.9094-10.2194,8.6875l-3.3318,18.8953h-74.061c-4.7781,0-9.3769,3.9094-10.2194,8.6875l-16.3907,92.9564c-.8425,4.7781,2.3776,8.6874,7.1557,8.6874Zm32.7202-78.4047c.4212-2.389,2.7206-4.3438,5.1097-4.3438h46.4781c2.3891,0,3.9991,1.9548,3.5778,4.3438l-8.1953,46.4781c-.4213,2.3891-2.7206,4.3438-5.1097,4.3438h-46.4781c-2.3891,0-3.9991-1.9547-3.5778-4.3438l8.1953-46.4781Z"></path>
    <path class="uuid-5a2aa463-0cbb-43c0-92c2-cc9599de6419"
        d="m403.3147,150.3465h-18.8953l17.9226-101.6438c.8425-4.7781,5.4412-8.6875,10.2193-8.6875h18.8953l-17.9226,101.6438c-.8425,4.7781-5.4412,8.6875-10.2193,8.6875Z"></path>
    <path class="uuid-5a2aa463-0cbb-43c0-92c2-cc9599de6419"
        d="m802.2024,45.3293c-.1935-.7788-.5079-1.5003-.9266-2.1445-.279-.4295-.6046-.8247-.9715-1.1795-1.2842-1.242-3.0764-1.9902-5.1668-1.9902h-101.6439l-1.5318,8.6875-16.3886,92.9444-.0021.0119c-.1227.6961-.1497,1.3704-.1077,2.0203.2014,3.1747,2.258,5.6673,5.3017,6.4227.6179.1541,1.2711.2445,1.9617.2445h101.6438l1.5318-8.6875,16.3907-92.9564c.2106-1.1946.1674-2.3348-.0907-3.3732Zm-44.8949,77.4343h-46.4781c-2.3891,0-3.9991-1.9548-3.5778-4.3438l8.1953-46.4781c.4213-2.3891,2.7206-4.3438,5.1097-4.3438h46.4781c2.3891,0,3.9991,1.9547,3.5778,4.3438l-8.1953,46.4781c-.4212,2.389-2.7206,4.3438-5.1097,4.3438Z"></path>
    <path class="uuid-5a2aa463-0cbb-43c0-92c2-cc9599de6419"
        d="m578.0583,40.0151c-4.7781,0-9.3769,3.9093-10.2194,8.6874l-3.3318,18.8954h41.3743l-14.5908,82.7485h18.8954c4.7781,0,9.3768-3.9094,10.2193-8.6875l13.0589-74.061h32.6867c4.7781,0,9.3769-3.9094,10.2194-8.6875l3.3318-18.8953h-101.6438Z"></path>
    <path class="uuid-5a2aa463-0cbb-43c0-92c2-cc9599de6419"
        d="m552.2485,58.9055l3.3309-18.8904h-101.6438c-4.7781,0-9.3769,3.9094-10.2194,8.6875l-9.0918,51.5624c-.8479,4.8088,2.363,8.7071,7.1718,8.7071h74.0414l-2.4318,13.7914h-82.7485l-3.3318,18.8953c-.8425,4.7781,2.3775,8.6875,7.1557,8.6875h92.9563c4.7781,0,9.3769-3.9094,10.2194-8.6875l9.0944-51.5767c.8465-4.8009-2.3591-8.6929-7.1601-8.6929h-74.0556l2.4318-13.7914h74.056c4.8007,0,9.3787-3.8918,10.2252-8.6925Z"></path>
    <path class="uuid-5a2aa463-0cbb-43c0-92c2-cc9599de6419"
        d="m919.2601,40.0151h-18.8953l-11.752,66.6488-43.4137-66.6488h-27.5828l-17.9225,101.6438c-.8425,4.7781,2.3776,8.6875,7.1557,8.6875h18.8953l11.8112-66.9844,43.3545,66.9844h27.5828l17.9226-101.6439c.8425-4.7781-2.3776-8.6874-7.1557-8.6874Z"></path>
    <path class="uuid-5a2aa463-0cbb-43c0-92c2-cc9599de6419"
        d="m1167.5056,40.0151h-92.9563c-4.7781,0-9.3769,3.9093-10.2194,8.6874l-3.3318,18.8954h78.4047c2.3891,0,3.9991,1.9547,3.5778,4.3438l-1.6659,9.4476h-74.061c-4.7781,0-9.3769,3.9093-10.2194,8.6874l-.9,5.104-2.4318,13.7914-5.7635,32.6867c-.8425,4.7781,2.3776,8.6875,7.1557,8.6875h92.9563c4.7781,0,9.3769-3.9094,10.2194-8.6875l7.2954-41.3743,3.3318-18.8953,5.7636-32.6868c.8425-4.7781-2.3776-8.6874-7.1557-8.6874Zm-37.8299,82.7485h-46.4781c-2.3891,0-3.9991-1.9548-3.5778-4.3438l1.6659-9.4476h55.1657l-1.6659,9.4476c-.4212,2.389-2.7206,4.3438-5.1097,4.3438Z"></path>
    </g>
</svg>